<svg id="profile-svg" xmlns="http://www.w3.org/2000/svg" height="1024" width="1024" viewbox="200 100 800 800"><path id="bckgrnd" fill="#867967" d="M0 0h1024v1024H0z"/><g fill-opacity=".5"><path fill="#fff" d="M-62-10l900-52L38 398z"/><path fill="#613d26" d="M-62 1018l1148 12-268-924z"/><path fill="#fff" d="M-62 14l636-76-292 432z"/><path fill="#c5efff" d="M1086-2l-96 332L582-62z"/><path fill="#261d12" d="M378 146l708 324L650 34z"/><path fill="#4a4d14" d="M-54 354l492-36-464 692z"/><path fill="#d6a198" d="M734 570L462 146l-60 616z"/><path fill="#000005" d="M814 414L630 710l260-88z"/><path fill="#faffff" d="M-62 358l480-84L54-62z"/><path fill="#000308" d="M310 542l108 332-20-392z"/><path d="M542 1058l180-188-120-16z"/><path fill="#475718" d="M874 306l212 708V286z"/><path fill="#dbb7ad" d="M718 398L530 194 422 338z"/><path fill="#f4ffff" d="M-54-62l248 400L526 38z"/><path fill="#000005" d="M238 1026l8-320 68 104z"/><path fill="#be9162" d="M266 594l-56 492-100-364z"/><path fill="#2b0700" d="M522 454l72-60-156-12z"/><path fill="#ebfaff" d="M1086 150l-260 28 108 120z"/><path fill="#5a453c" d="M390 178l-8 200L582 22z"/><path fill="#2a3344" d="M598 758l-184 288-8-324z"/><path fill="#b28f64" d="M1086 914L874 642l-72 208z"/><path fill="#2e2518" d="M834 202l104 172-332 84z"/><path fill="#c49788" d="M750 446l-380 8 320 180z"/><path fill="#a3a45f" d="M1086 378l-348 40 164 68z"/><path fill="#f9fdff" d="M-62 14l440-76-4 388z"/><path fill="#00141d" d="M766 438l104 236-180-4z"/><path fill="#3a4824" d="M-2 446l-12-100 376-8z"/><path fill="#887b49" d="M330 758L-62 458l412-32z"/><path fill="#b5c3cc" d="M362-62h644L626 82z"/><path fill="#b08356" d="M218 1086l204-96-100-160z"/><path fill="#0a0000" d="M598 850l-136 40 288 12z"/><path fill="#44332e" d="M418 186l380-60 84 180z"/><path fill="#a66f62" d="M510 486l24 264 160-128z"/><path fill="#4b3d29" d="M18 1086l144-464-224 68z"/><path fill="#9e7654" d="M714 858l160-204-456 204z"/><path fill="#c09b89" d="M586 454L442 714l-64-328z"/><path fill="#b3c1d3" d="M82 110L-62 226l296 20z"/><path fill="#7a8c98" d="M1026-62l60 196-288 20z"/><path fill="#ba905f" d="M118 778l-84 308h84z"/><path fill="#1b0d0a" d="M626 714l-140 72 184-24z"/><path fill="#acb2b1" d="M370 206l12-84 136-36z"/><path fill="#030100" d="M462 910h-48l4 152z"/><path d="M814 462l48 164 4-144z"/><path fill="#cadce9" d="M366 314L70 338l332-128z"/><path fill="#101b17" d="M422 630l-40-140-72 128z"/><path fill="#5a677f" d="M522 802l-128-48 48 176z"/><path fill="#6b493d" d="M790 422L726 58 618 490z"/><path fill="#3d3618" d="M1082 734l-220-64 112-48z"/><path fill="#fdffff" d="M-14 326l-48-92 340 16z"/><path fill="#e2eff2" d="M898 174l188 144-44-176z"/><path fill="#b58c7a" d="M574 226l160 164-148 12z"/><path fill="#275e59" d="M766 558l88 32-72-144z"/><path fill="#ab976e" d="M910 510l-24 136-20-164z"/><path fill="#6b6234" d="M110 638l192-8 128-288z"/><path fill="#a2a1a4" d="M-62 662v96l124-24z"/><path fill="#816a59" d="M566 46l-96 68 284-20z"/><path d="M418 582l-56 16 12 124z"/><path fill="#cda584" d="M126 738l180-116-124 36z"/><path fill="#c5a394" d="M398 470l68 144-12-372z"/><path fill="#00040d" d="M578 1062l-12-112 80-76z"/><path fill="#a88b77" d="M470 746l-80-84 292-20z"/><path fill="#845b38" d="M850 794l236 212-540 68z"/><path fill="#111b08" d="M754 382l128-88v96z"/><path fill="#a5b9c1" d="M1002 190l-152 48 136 68z"/><path fill="#452810" d="M1022 894l-100 192-64-16z"/><path fill="#8e554c" d="M642 554L534 738l16-192z"/><path fill="#2e1106" d="M622 398l112 40-104 4z"/><path fill="#07080c" d="M234 1026l52-160-48 28z"/><path fill="#976141" d="M314 510l96 380-164-188z"/><path fill="#2b1f1e" d="M322 746l56-84 64 76z"/><path fill="#3b1e0f" d="M578 430l-132-20 84-32z"/><path fill="#76784b" d="M410 422L90 338-22 666z"/><path fill="#333a1d" d="M286 334l48 60 96-52z"/><path fill="#311503" d="M846 718l-48 16-20 68z"/><path d="M734 554l128 104-152-32z"/><path fill="#242d0f" d="M30 430l80-84-124 48z"/><path fill="#120f11" d="M802 866l-192 56 4-60z"/><path fill="#966a42" d="M454 930l-24 156 168-164z"/><path fill="#241a16" d="M342 842l88 84-8-48z"/><path fill="#455430" d="M922 358l164 108V218z"/><path fill="#9c7753" d="M274 878l120 28-132 64z"/><path fill="#4c2d28" d="M430 302l-48-28 24 140z"/><path fill="#fff" d="M290 74l100 188-192-12z"/><path fill="#56351c" d="M894 826v156l-48-24z"/><path fill="#a48562" d="M1086 846l-184-96 48 188z"/><path fill="#577a65" d="M370 546l40 8-84 52z"/><path fill="#1d1915" d="M242 710l4 72 92 56z"/><path fill="#0b0900" d="M46 698l-108-4 68-40z"/><path fill="#4c3c35" d="M402 178l436 92L730 78z"/><path fill="#bb9c8c" d="M678 498l80-68-44 148z"/><path fill="#d2a89f" d="M606 550l-68-20 64-120z"/><path fill="#8d6745" d="M514 846l300 4-100-188z"/><path fill="#b1c4d0" d="M338 258l-224 80 204-12z"/><path fill="#7f8165" d="M306 502l-368 20V422z"/><path fill="#535738" d="M198 442l20-116-128 28z"/><path fill="#b3c1c9" d="M854 174L758-6 590-38z"/><path fill="#ab8971" d="M698 602l-84 104-128-4z"/><path fill="#0f100d" d="M710 666l48-124-164 204z"/><path fill="#8c4040" d="M642 618l-88 20-96-52z"/><path fill="#301b11" d="M630 246l-104-64 144 8z"/><path fill="#382315" d="M438 934l36-68 196-12z"/><path fill="#1c1c1c" d="M834 182h-80l104 64z"/><path fill="#c7aca0" d="M462 230l164 96-212 72z"/><path fill="#917253" d="M898 818l-36-208-108 476z"/><path fill="#8a604c" d="M462 362l68 108-96-68z"/><path fill="#4d2507" d="M194 1086h-48V914z"/><path fill="#bfd2dd" d="M-2 346l-60-84 332 60z"/><path fill="#b4c0c6" d="M514 54l172-8L526-62z"/><path fill="#a9855e" d="M182 674l76 116-164 84z"/><path fill="#dbe6f6" d="M506 66l4-128L142 78z"/><path fill="#fff" d="M6-62l-68 228L226 14z"/><path fill="#938f58" d="M890 478l-96-96-16 52z"/><path fill="#2b313c" d="M526 826l-88-92 132 36z"/><path fill="#ae8a7c" d="M602 630l-200 64 16-96z"/><path fill="#635b54" d="M714 106l-76 68 180-28z"/><path fill="#b5937f" d="M630 598l-188 4-40-84z"/><path fill="#a37a5a" d="M266 726l96-56-160 4z"/><path fill="#644026" d="M674 682l4 116-80-28z"/><path fill="#a36e64" d="M410 410l-36-88-4 128z"/><path fill="#453e24" d="M142 694l-156 12 240-96z"/><path fill="#6d482d" d="M602 870l-148 48 140 4z"/><path fill="#040a0e" d="M874 566l-40-104 12 200z"/><path fill="#fff" d="M998 162l-80 40-76-12z"/><path fill="#554135" d="M426 238v-92l196 8z"/><path fill="#5a3e28" d="M794 846l-112 60 108 12z"/><path fill="#7a685b" d="M558 98l160 28-28-76z"/><path fill="#1e0900" d="M322 546l60-60 20 20z"/><path fill="#050000" d="M442 1086l-4-128-68 128z"/><path fill="#614739" d="M754 426L626 258l176-68z"/><path fill="#565962" d="M522 834L386 702v116z"/><path fill="#a17956" d="M370 738l-64 60 80 56z"/><path fill="#201d21" d="M830 458l-68-16-36 112z"/><path fill="#534d32" d="M942 510l144 20-192 64z"/><path fill="#82804d" d="M1086 398L902 526 786 394z"/><path fill="#976a56" d="M506 374h260l-156 44z"/><path fill="#becdd1" d="M782 122h-48l52-56z"/><path fill="#a4806a" d="M614 442l36 224 60-80z"/><path fill="#836151" d="M482 746l16-52 96 40z"/><path fill="#c5a69a" d="M434 374V250l232 108z"/><path fill="#9aaab3" d="M1050-34L830 186 794-62z"/><path fill="#8e5749" d="M486 518l36-12 44 60z"/><path fill="#829297" d="M1086 70L926 50l-40 128z"/><path fill="#927154" d="M538 830l256-88-52 128z"/><path fill="#4d443d" d="M230 682l12 40-36-52z"/><path fill="#ecf3fc" d="M458 62l-80-32 64 116z"/><path fill="#ba9972" d="M298 614l-128 64h104z"/><path fill="#6c6d42" d="M902 474l144 164-148-12z"/><path fill="#676436" d="M6 674l340-172-68 124z"/><path fill="#855d39" d="M66 1074l76-308 12 252z"/><path fill="#6e8d80" d="M926 306l68-4-148-56z"/><path fill="#b3c4cc" d="M1086 250l-144 44-88-72z"/><path fill="#a48c6d" d="M862 670l24 108 76-44z"/><path fill="#1b181b" d="M618 730l-108 24 108 8z"/><path fill="#847d73" d="M514 102l40-16-24-76z"/><path fill="#e1e7ef" d="M230 162L-38 82l232 144z"/><path fill="#8d6a4a" d="M562 1086l344-56-236-84z"/><path fill="#816f62" d="M374 298l48-176v160z"/><path fill="#5e6036" d="M310 434L78 334l8 100z"/><path fill="#42190c" d="M350 558l-44 60 16 12z"/><path fill="#1e312e" d="M846 678l-136-52-28 44z"/><path fill="#676b37" d="M950 758l136 96-132-176z"/><path fill="#977362" d="M510 202l104 40 64 84z"/><path fill="#3b3630" d="M734 82l-44-12 36 76z"/><path fill="#7a753d" d="M34 426l28 252-124-40z"/><path fill="#305d50" d="M782 550l84 36-100-104z"/><path fill="#fff" d="M178 246l-32 48-168-52z"/><path fill="#9baeaa" d="M378 302l-80 12 88 20z"/><path fill="#5f3f24" d="M678 918l-84 120 16-64z"/><path fill="#2d373f" d="M530 814l-28 4-32 56z"/><path fill="#562a13" d="M366 718l4-60-64 120z"/><path fill="#3d532e" d="M822 270l80 8 60 60z"/><path fill="#8d694a" d="M418 958l-32 128-68-264z"/><path fill="#835b48" d="M522 446l32 20 32-60z"/><path fill="#232326" d="M234 938l88-116-64-72z"/><path fill="#392720" d="M598 110l92 12-80 64z"/><path fill="#9b7a5b" d="M826 698l-60 80-108-44z"/><path fill="#213005" d="M358 346l-40 32 40 12z"/><path fill="#656976" d="M450 790l-16 100 100-88z"/><path fill="#a4825c" d="M246 778l-76 36 64 80z"/><path fill="#050207" d="M346 614l36 72 32-76z"/><path fill="#403d16" d="M14 1002l48-80-52-20z"/><path fill="#cadcdd" d="M890 186l-56-12 32 64z"/><path fill="#3c271a" d="M842 398L682 298l136 28z"/><path fill="#6f713d" d="M266 370l-160 56-48-60z"/><path fill="#210f0a" d="M538 398l-64 8 72 20z"/><path fill="#3e3e3e" d="M294 834l-28-64-16 140z"/><path fill="#564633" d="M22 750l160-136-96 208z"/><path fill="#a58d83" d="M530 746l-132-76 44 60z"/><path fill="#0c100f" d="M398 506l-68 52 72-24z"/><path fill="#0d0f15" d="M574 854h72l-8 64z"/><path fill="#9b7853" d="M466 994v92l100-124z"/><path fill="#4c5d1c" d="M1006 470l80-68-88 8z"/><path fill="#969478" d="M154 518l-68-20 116-8z"/><path fill="#714236" d="M610 566l-40 16-24-32z"/><path fill="#695d52" d="M750 194l88 52-132-36z"/><path fill="#876344" d="M998 906l-116 152 20-272z"/><path fill="#815c3c" d="M650 698l76-24 80 28z"/><path fill="#885f4d" d="M426 402l128-16-76-12z"/><path fill="#bd9888" d="M602 430l-196 76 8 76z"/><path fill="#796844" d="M874 566l40 132-40-44z"/></g></svg>