<svg id="profile-svg" class="fixed" xmlns="http://www.w3.org/2000/svg" height="1024" width="1024" viewbox="200 100 800 800"><g fill-opacity=".5"><path fill="#fff" d="M-62-2l96 400L754-18z"/><path fill="#372710" d="M1086 482l-540 604L702 62z"/><path fill="#fff" d="M566-62L-62 14l352 360z"/><path fill="#c6efff" d="M1086 14L598-62l384 396z"/><path fill="#604422" d="M1086 1010L34 310l-96 776z"/><path fill="#2f2118" d="M1086 386L554 46 386 178z"/><path fill="#cb9289" d="M746 566L406 786l36-660z"/><path fill="#faffff" d="M374-62L-62 346l436-32z"/><path fill="#3f5020" d="M418 662L-62 354l428-28z"/><path fill="#00000d" d="M830 426L638 690l248-44z"/><path fill="#b69263" d="M110 790l184-352-84 612z"/><path fill="#8c6a40" d="M550 834l536-344v456z"/><path fill="#f1feff" d="M14-62l-76 444L510 62z"/><path fill="#000006" d="M226 1034l92-240-64-72z"/><path fill="#232c44" d="M362 678l188 104-124 260z"/><path fill="#dcb8ad" d="M434 350l300 36-232-192z"/><path fill="#55452b" d="M402 402l684-124-284 200z"/><path fill="#f5ffff" d="M842 190l168 92 68-152z"/><path fill="#090109" d="M498 866l92 140 136-144z"/><path fill="#a4a760" d="M726 410l292-24-68 132z"/><path fill="#d0a390" d="M610 722l152-284-124 52z"/><path fill="#00000e" d="M390 786l-64-240 76-56z"/><path fill="#503d35" d="M406 122l-28 276 128-252z"/><path fill="#82824e" d="M238 710l164-264-464-20z"/><path fill="#4e5c28" d="M894 662l192-596-36 776z"/><path fill="#3f332b" d="M798 126l-360 44 532 256z"/><path fill="#434224" d="M-62 710l240-116L6 1086z"/><path fill="#9a765b" d="M1050 846l-648 8 476-188z"/><path fill="#001a1f" d="M686 674h168l-84-256z"/><path fill="#000419" d="M638 726l-148 32 60 44z"/><path fill="#a87954" d="M250 994l144-256-16 348z"/><path fill="#a2685a" d="M494 506l68 240 140-132z"/><path fill="#7b8d99" d="M1082-62l-16 220-276-28z"/><path fill="#cca090" d="M434 610l-64-212 280 108z"/><path fill="#2b0300" d="M534 438l52-44H450z"/><path fill="#3c391a" d="M158 350l240 48 44-76z"/><path fill="#acc6ce" d="M926 306l160-64-240-24z"/><path fill="#f9fdff" d="M374-62L-62 14l444 308z"/><path fill="#bd9283" d="M534 194l160 152-108 120z"/><path fill="#b1bcce" d="M98 134l-160 96 292 12z"/><path fill="#b38a67" d="M146 670L66 994l248-380z"/><path fill="#8f8657" d="M854 442l40 196 136-256z"/><path fill="#19200d" d="M966 382l-196 12 24-136z"/><path fill="#9d6e49" d="M494 1086l-40-140 152-60z"/><path fill="#614b42" d="M814 238l-188 88 40-276z"/><path fill="#b3c6d3" d="M794 94L770-62H262z"/><path fill="#2a3813" d="M-62 382l184-44-156 156z"/><path fill="#5e5833" d="M238 502l176 56-476 200z"/><path fill="#a4a8a6" d="M386 278l72-164h-88z"/><path d="M394 1058l48 28-4-168z"/><path fill="#7d5437" d="M642 1086l444-80-284-272z"/><path fill="#5d6b83" d="M518 806l-76 100-52-140z"/><path fill="#c9b1a5" d="M574 242L410 434l36-192z"/><path fill="#0f0000" d="M350 622l72-40-64 168z"/><path fill="#317064" d="M850 590l-36-112-48 60z"/><path fill="#322313" d="M910 666l68-36 108 100z"/><path fill="#a3a4a8" d="M6 702l52 32-120 24z"/><path fill="#8f5c3f" d="M426 1006L322 514l-60 204z"/><path fill="#471c18" d="M642 462l128-52-164-4z"/><path fill="#b39b86" d="M562 698H410l16-180z"/><path fill="#000110" d="M598 1026l-60 20 92-188z"/><path fill="#b28c7b" d="M766 422l-184 84 104 132z"/><path fill="#4c3830" d="M382 218l448-20L514 98z"/><path fill="#07090d" d="M614 918l-32-60 204 12z"/><path fill="#2c1709" d="M782 806l12-60 64-48z"/><path fill="#acc5d3" d="M54 338l324-12-60-72z"/><path fill="#fbffff" d="M354 238l-416 8 252 72z"/><path fill="#322a25" d="M434 938L322 826l176 88z"/><path d="M858 482l-48-28 56 140z"/><path fill="#472810" d="M826 1086l200-192-76 132z"/><path fill="#7d2e2f" d="M658 618l-96 16-92-40z"/><path fill="#80835f" d="M90 518l208-8L74 370z"/><path fill="#ab845b" d="M122 770l-4 316H30z"/><path fill="#826d5e" d="M530 46l-20 100 188-84z"/><path fill="#6d4324" d="M182 1086l-40-292-32 124z"/><path fill="#987959" d="M850 910l48-348-76 156z"/><path fill="#edf6fa" d="M838 170l192-4-176 52z"/><path fill="#a07363" d="M570 214l96 188 80-8z"/><path fill="#1c0000" d="M342 526l-16 80 68-128z"/><path fill="#3e381f" d="M-22 698l236-84-64 80z"/><path fill="#dce8f6" d="M534 46l-368 56L326-62z"/><path fill="#7b4437" d="M582 586l-60-44 116 12z"/><path fill="#8d694a" d="M810 1086l64-232-268 128z"/><path fill="#08050b" d="M234 1042l36-100-24-72z"/><path fill="#0c0808" d="M698 614l-92 120 188-144z"/><path fill="#976e4f" d="M742 654l52 176-152-108z"/><path fill="#222125" d="M266 870l-28-164 96 124z"/><path fill="#b1c0c7" d="M822 78l-92 36 108 24z"/><path fill="#3a2e29" d="M362 658l116 116-144-36z"/><path fill="#4b6534" d="M1074 494L854 262l184 72z"/><path fill="#926556" d="M410 414l-36-136-4 156z"/><path fill="#757439" d="M338 546L42 682-62 506z"/><path fill="#676440" d="M946 654l-56-172 176-16z"/><path fill="#a88b72" d="M530 694l176-96-108 120z"/><path fill="#ca9f92" d="M522 546l76-32 40-168z"/><path fill="#b88f6b" d="M322 734l-40-104-104 16z"/><path fill="#bb997a" d="M898 526l-36-60 28 140z"/><path fill="#fafdff" d="M378 46l8 216-180-28z"/><path fill="#523018" d="M878 982l24-164-48 100z"/><path fill="#020107" d="M710 594l160-4-32 80z"/><path fill="#9e7a54" d="M230 1086h236L282 886z"/><path fill="#311e12" d="M406 950l92-84 108-12z"/><path fill="#2e1a13" d="M670 186l-132 4 104 60z"/><path fill="#a68863" d="M1078 894H938l-60-212z"/><path fill="#c4d4df" d="M30 270l-12 76 216-28z"/><path fill="#fff" d="M-62 154L250 34 26-62z"/><path fill="#8e8753" d="M1010 386l-40 92-256-52z"/><path fill="#cba99b" d="M506 498l-88-120-24 96z"/><path fill="#9b7e66" d="M734 870l-140-32 152-8z"/><path fill="#131012" d="M742 178l92 12 20 44z"/><path fill="#3f4f23" d="M382 414l-108-64 64-40z"/><path fill="#4d3229" d="M406 402l-28-116 56 32z"/><path fill="#a07855" d="M406 870l-112-84 76-32z"/><path fill="#0e0e00" d="M-38 690l88 8-84-80z"/><path fill="#634336" d="M826 302l-136 64-48-160z"/><path fill="#815242" d="M562 446l-60 8-48-52z"/><path fill="#7d5435" d="M434 1010l36-100 108-28z"/><path fill="#9e9a92" d="M530 38l-24 40 156-28z"/><path fill="#36251f" d="M690 122l-96 64 4-76z"/><path fill="#b1978e" d="M442 650l48 96-76-32z"/><path fill="#8e5442" d="M514 534l28-36-68 32z"/><path fill="#5f422f" d="M806 834l-12 100H630z"/><path fill="#986b49" d="M374 670l-104 76V590z"/><path fill="#3c424a" d="M486 746l76 40-72 76z"/><path fill="#b7c7ce" d="M850 210l236 8-156 80z"/><path fill="#746e40" d="M310 342l36 260-148-204z"/><path fill="#080b10" d="M710 606l32 64 20-200z"/><path fill="#bfa296" d="M682 370l-216 8 60-172z"/><path fill="#9a714d" d="M230 862l8 224-80-128z"/><path fill="#b2b9b8" d="M446 146l44-48-80 16z"/><path fill="#253836" d="M698 626l136 52-132-8z"/><path fill="#7f8f95" d="M1086 70L882 178l80-124z"/><path fill="#5c616d" d="M434 930l-20-184 88 76z"/><path fill="#b0b3b1" d="M418 118l-32 128-24-56z"/><path fill="#966859" d="M614 442l100 8-96 60z"/><path fill="#616337" d="M314 422L74 442l4-108z"/><path fill="#29282a" d="M746 98l-44 20 20-44z"/><path fill="#141b0b" d="M794 346l56 52 56-88z"/><path fill="#171412" d="M458 930l-44-24 12 120z"/><path fill="#a57f5c" d="M130 794l100 124 20-132z"/><path fill="#99a8b1" d="M762 50l76 140 212-212z"/><path fill="#4c5936" d="M970 286l-80 88 112 32z"/><path fill="#8c604d" d="M450 410l-20-36 96 4z"/><path fill="#dae0eb" d="M170 218l32-56L2 106z"/><path fill="#020710" d="M338 614l64 44 8-80z"/><path fill="#5b4a3e" d="M578 106L442 238l-24-88z"/><path fill="#8f6a49" d="M994 910l-92-128 8 244z"/><path fill="#326a5e" d="M406 546l-16 44-40-24z"/><path fill="#605349" d="M706 114l-52 56 168 108z"/><path fill="#634234" d="M686 222l128 172-92 52z"/><path fill="#29272d" d="M758 530l-4-96 92 36z"/><path fill="#a1b1bb" d="M238 306l40 32 76-28z"/><path fill="#1a141f" d="M222 678l16 36-24-28z"/><path fill="#bfa47f" d="M190 654l-48 48 84 4z"/><path fill="#423711" d="M942 762l52 16-44-28z"/><path fill="#c68985" d="M514 614l-60 24 136-8z"/><path fill="#431f12" d="M302 618l20 20 20-68z"/><path fill="#805d4f" d="M518 750l-40-64 124 28z"/><path fill="#683f28" d="M686 794l-96-12 64-84z"/><path fill="#48401c" d="M34 1030l36-96-96-60z"/><path fill="#b3bfc4" d="M802-26l16 152L490-62z"/><path fill="#b79688" d="M606 490l120 52 24-80z"/><path fill="#887568" d="M386 186l40-16-28 132z"/><path fill="#738c6f" d="M902 282l-36-20-16-36z"/><path fill="#996a56" d="M594 418l128-32-188-8z"/><path fill="#4e291b" d="M582 402l-96-20 76 60z"/><path fill="#b69280" d="M578 598L390 442l28 156z"/><path fill="#211109" d="M718 438l-72-24-20 28z"/><path fill="#2a3617" d="M-30 418l104 16-32-64z"/><path fill="#926c4d" d="M582 842l-4-64-112 100z"/><path fill="#9b7f5f" d="M962 726L810 934l68-252z"/><path fill="#7c714a" d="M902 594l112-16-196 108z"/><path fill="#5f5832" d="M126 690l-76-80 212-4z"/><path fill="#2c1400" d="M142 1086l20-116 20 84z"/><path fill="#e9f1fb" d="M330 46l4 120L518 42z"/><path fill="#0b1919" d="M398 526v-36l-68 84z"/><path fill="#3c1d08" d="M1086 834L966 946l120-60z"/><path fill="#a7806c" d="M662 658l36-68-100-160z"/><path fill="#977352" d="M402 1038L286 886l128 44z"/><path fill="#294e46" d="M778 574l-32-104 116 116z"/><path fill="#9a795b" d="M774 782l44-84-160 40z"/><path fill="#373e46" d="M534 782l-140-76-16 64z"/><path fill="#3b4c43" d="M174 330l84 8-136 24z"/><path fill="#5e2d17" d="M298 782l72-108-24 72z"/><path fill="#54462d" d="M930 622l156 136-220-88z"/><path fill="#747f38" d="M986 510l100 16-104-124z"/><path fill="#856245" d="M866 914l-184-4-100 152z"/><path fill="#888966" d="M102 530l144-40H-38z"/><path fill="#5b4f47" d="M814 146l-224 56 116-84z"/><path fill="#f8ffff" d="M1058 154H958l-32 36z"/><path fill="#494844" d="M282 830l-8-68-24 132z"/><path fill="#b4c3cb" d="M50 234l-12-96 100 100z"/><path fill="#534635" d="M946 514l140 12-188 48z"/><path fill="#906b47" d="M142 1086l-12-284-56 216z"/><path fill="#787748" d="M154 478l224-92v100z"/><path fill="#d6e4e9" d="M778 114l-28 4 4-48z"/><path fill="#3d3a3b" d="M422 886l-44-132 60 76z"/><path fill="#cbaea2" d="M418 390l36-124 124 36z"/><path fill="#2d1f1b" d="M706 218l-36-44-72 52z"/><path fill="#3e4924" d="M1010 282l76 4-88 104z"/><path fill="#191a21" d="M614 742l-108 8 52 36z"/><path fill="#787b42" d="M30 678l-88-364L70 546z"/><path fill="#8ea2a1" d="M986 282l8 24-60-8z"/><path fill="#8f4e45" d="M566 678l-32-48 68 24z"/><path fill="#050401" d="M446 1086l-40-60 28-76z"/><path fill="#392f2a" d="M850 214l-44-60-132 20z"/><path fill="#b2946d" d="M302 602v32l-84 40z"/><path fill="#0c1013" d="M646 882l-84 204 8-132z"/><path fill="#1c1c21" d="M246 938l72-120-28-44z"/><path fill="#866548" d="M618 902l-176 104 84-92z"/><path fill="#a68461" d="M706 698l76-16-60-8z"/><path fill="#485a39" d="M970 330l-124-48 60-8z"/><path fill="#7a6657" d="M698 66l-180 4 92 44z"/><path fill="#19120f" d="M238 762l16-36 24 32z"/><path fill="#30180b" d="M786 766l56-36-36 4z"/><path fill="#b8c5cb" d="M542 50h180L538-62z"/><path fill="#79524c" d="M562 734l56-12 32-48z"/><path fill="#6f462b" d="M626 730l164-32-104-12z"/><path fill="#97614d" d="M370 378h40l-4 56z"/><path fill="#696d45" d="M-54 418l116-68-124-12z"/><path fill="#675749" d="M778 278l-116-4 24-52z"/><path fill="#fff" d="M90 114L86-62l124 200z"/><path fill="#c59f92" d="M418 422l184 88-224-32z"/><path fill="#26120a" d="M466 406l72-8 20 24z"/><path fill="#fff" d="M290 246l-296 4 156 40z"/><path fill="#bda483" d="M242 642l-60 4 36 32z"/><path fill="#36331f" d="M718 346l144-88 52 60z"/><path fill="#0c0a0d" d="M602 930l116-52-100-24z"/><path fill="#8e7261" d="M478 206l72-4-108 44z"/><path fill="#472c21" d="M426 298l-24-32 12 108z"/><path d="M854 494l-36-40 36 124z"/><path fill="#e1e9f1" d="M522 58L494-62 130 66z"/><path fill="#37352b" d="M106 342l48 8-96 12z"/><path fill="#92885c" d="M866 470l-56-80-48 40z"/><path fill="#a69674" d="M950 770l92 56 44 104z"/><path fill="#5e402a" d="M598 914l-120-12 120-28z"/><path fill="#c89c92" d="M602 394l-64 124 64 36z"/><path fill="#865d4c" d="M686 402l-32-104 108 100z"/><path fill="#73753c" d="M318 358L94 386l200 28z"/><path fill="#112317" d="M406 566l12 56-36-56z"/><path fill="#936f4d" d="M258 978l160 20-100-168z"/><path fill="#25300a" d="M314 374l52 16-28-48z"/><path fill="#61646f" d="M446 870l-44-76h140z"/><path fill="#71643c" d="M58 882H-46l84-84z"/><path fill="#a6877a" d="M394 670l112 76-60-152z"/><path fill="#8f6a47" d="M970 958l100 4-36-56z"/><path fill="#100d0d" d="M374 614l44 112-36-40z"/><path fill="#241912" d="M82 666l-12 36 40-20z"/><path fill="#a1afb6" d="M718-62l208 228-80 20z"/><path fill="#722426" d="M614 626l-36-20-44 8z"/><path fill="#9d7557" d="M338 594l-16 56 20 4z"/><path fill="#866449" d="M754 858l-76 8 72-160z"/><path fill="#fff" d="M390 174L194 286l92-212z"/><path fill="#807c76" d="M526 2v76l24 12z"/><path fill="#523e33" d="M542 210l-124-20 248-64z"/><path fill="#3d200d" d="M978 978l-28-4-40 72z"/><path fill="#574835" d="M58 842L38 722l136-68z"/><path fill="#ae8877" d="M670 334l-188 40 196 16z"/><path fill="#2c251c" d="M766 858l28 28-60-12z"/><path fill="#d8e1e7" d="M38 342l192-52-292-24z"/><path fill="#21362e" d="M746 654l48 28 32-24z"/><path fill="#3b424e" d="M426 906l76-64-76 116z"/><path fill="#80936d" d="M346 330l28 16 8-20z"/><path fill="#3c2c21" d="M846 210L746 430l104-112z"/><path fill="#9a7757" d="M426 1066l32-76 84-8z"/><path fill="#302525" d="M830 458l-76-20-8 68z"/><path fill="#8a6c4d" d="M858 674v268l-60-92z"/><path fill="#161820" d="M802 594l48-20 4 92z"/><path fill="#59361d" d="M146 854l-24 8 28 36z"/><path fill="#946d4a" d="M1086 946l-212 116 212-4z"/><path fill="#a6846e" d="M522 710l88-8 100-112z"/><path fill="#a27f5a" d="M126 862l108-12 8-132z"/><path fill="#685c39" d="M354 538l-192 36 108-72z"/><path fill="#757847" d="M962 550l-40 72 104 8z"/><path fill="#dde8ee" d="M38 34l40 16 12 108z"/><path fill="#9d6959" d="M466 546l60-12 8-40z"/><path fill="#685b51" d="M698 78l8 68-40 72z"/><path fill="#5f3e24" d="M490 702l68 20h-44z"/><path fill="#ad8a75" d="M734 502L574 606l100 16z"/><path fill="#736d42" d="M950 746l88-28-36 80z"/><path fill="#95724f" d="M234 966l-44 100-60-292z"/><path fill="#976051" d="M626 502l16 52 16-8z"/><path fill="#181811" d="M362 510l28-28 12 20z"/><path fill="#564b45" d="M702 150l124 20-40-40z"/><path fill="#605a3e" d="M966 546l-32-52-52 168z"/><path fill="#7e7a6e" d="M58 722l-120-56 104 88z"/><path fill="#926b49" d="M414 894l-56-100 40 24z"/><path fill="#251205" d="M378 722l4-32-64 56z"/><path fill="#35340e" d="M274 610l-28 12 8 8z"/><path fill="#8e8872" d="M46 458l56 12 36-28z"/><path fill="#e0e9ed" d="M290 254l96-4-16 44z"/><path fill="#bfced6" d="M238 326L30 338l92-40z"/><path fill="#665f3a" d="M130 674L-38 562l172 52z"/><path fill="#876b5a" d="M450 258l-72 20 44-60z"/><path fill="#22331c" d="M238 342l32 28-60-12z"/><path fill="#333335" d="M258 882l16-112 28 88z"/><path fill="#fff" d="M962 162l-40 32-40-4z"/><path fill="#a39789" d="M650 54l-68-8 52 36z"/><path fill="#9a6a47" d="M258 706l104-8-60 48z"/><path fill="#86969b" d="M866 146l220-24-156-72z"/><path fill="#0c0502" d="M274 754l-4 24-28-16z"/><path fill="#373336" d="M438 738l112 60-4-44z"/><path fill="#211610" d="M694 126l-72 40 44-48z"/><path fill="#a07f59" d="M218 890l-28-156 64 44z"/><path fill="#8c6d63" d="M506 750l68-12-96-28z"/><path fill="#2d2014" d="M418 894l-32-4-20-36z"/><path fill="#d6e4e5" d="M974 146l112 20-44 132z"/><path fill="#ccd3da" d="M222 274l28 44 128-52z"/><path fill="#aa8b76" d="M466 738l28-136-92-72z"/><path fill="#eef4fa" d="M438 54l-48-12 48 100z"/><path fill="#251c16" d="M14 358l-76 56V306z"/><path fill="#7c5135" d="M562 1066l-4-64-44 12z"/><path fill="#a98d7d" d="M686 358l-92-36-48-104z"/><path fill="#56372a" d="M790 334l-72 36-64-120z"/><path fill="#84553a" d="M358 726l-24 28 56 24z"/><path fill="#486d61" d="M366 546l32 4-36 28z"/><path fill="#9d9b94" d="M554 58l24-44 4 32z"/><path fill="#5f6245" d="M34 474v32l100-40z"/><path fill="#09090b" d="M734 538l116 120-140-40z"/><path fill="#4e3f31" d="M282 414l-20 20-48-24z"/><path fill="#5c5636" d="M778 386l80 12-120 20z"/><path fill="#f6fdfc" d="M66 278L-62 174 2 282z"/><path fill="#b48764" d="M326 682l-16-12-48 28z"/><path fill="#62544a" d="M706 66h-68l84 104z"/><path fill="#9f8a6b" d="M874 678l24 84 68-24z"/><path fill="#332e2d" d="M726 122l12-20-32 8z"/><path fill="#a28462" d="M94 982l-68 100 72-220z"/><path fill="#4c3a2b" d="M78 742l-92 24-48 112z"/><path fill="#211711" d="M450 926l60-56-44 16z"/><path fill="#372218" d="M698 214l88 28 36 56z"/><path fill="#6a4629" d="M954 1006l32-44 72-8z"/><path fill="#59643f" d="M914 330l48-36 64 80z"/><path fill="#a0a48e" d="M214 502l36-8-24-8z"/><path fill="#846142" d="M898 818v84l40-148z"/><path fill="#58483d" d="M214 702v-20l52 44z"/><path fill="#5f4d43" d="M598 106l-132 68-16-40z"/><path fill="#65554a" d="M850 258l-80-60h-88z"/><path fill="#533521" d="M630 934h28l-52 88z"/><path fill="#83804e" d="M82 506l-40 80 76 8z"/><path fill="#64452e" d="M822 718l-12 64 36-60z"/><path fill="#997554" d="M326 854l32 96-80-56z"/><path fill="#4d5934" d="M94 406l-20 44-64-20z"/><path fill="#61626e" d="M430 854l32 24-24 52z"/><path fill="#536046" d="M846 306v-60l28-4z"/><path fill="#5d2d19" d="M330 690l40-12-4 24z"/><path fill="#dde2e9" d="M122 158l144-8-96 44z"/><path fill="#877f78" d="M414 162l-20-24h52z"/><path fill="#b2c0c7" d="M946 206l36 96 28-24z"/><path fill="#746d37" d="M102 574l204-60H102z"/><path fill="#897f52" d="M-10 634l76 40-68-68z"/><path fill="#cfb1a5" d="M582 310l16 52-156-72z"/><path fill="#52535a" d="M414 734l-16 60 76-40z"/><path fill="#8d694c" d="M314 610l-36-44 56-8z"/><path fill="#857e52" d="M342 526l-4-100 44 44z"/><path fill="#6a6d4f" d="M926 418l-4-44-40 24z"/><path fill="#d0d6dc" d="M390 106l-4 96-24-88z"/><path fill="#000612" d="M246 830v36l12-44z"/><path fill="#9b9c9b" d="M734 94l4 24 12 8z"/><path fill="#1f1616" d="M850 222l-16 20-32-52z"/><path fill="#937153" d="M570 838l172 28-140-92z"/><path fill="#403a19" d="M146 610l16 64 16-20z"/><path fill="#120f0e" d="M242 894l4 44-16 16z"/><path fill="#7c6351" d="M410 450l-16-56v32z"/><path fill="#c57f6f" d="M390 430l-12-44 20 8z"/><path fill="#100400" d="M626 718l-12 32-36 12z"/><path fill="#653a1f" d="M298 638l8 24-24-8z"/><path fill="#a7b5b8" d="M374 334l-16-24 20-28z"/><path fill="#19262c" d="M738 558l36 48 92-12z"/><path fill="#6e3f2d" d="M590 610l60 16-32 4z"/><path fill="#182210" d="M878 386l12-88-68 84z"/><path fill="#785443" d="M598 238l112 80-64-16z"/><path fill="#704e35" d="M582 890l-120 32-20 52z"/><path fill="#775646" d="M758 446l-24-60 28-36z"/><path fill="#694b34" d="M774 926l28-64-12-64z"/><path fill="#15120c" d="M874 574l-28-28 24 84z"/><path fill="#856043" d="M722 798l80 40-200-12z"/><path fill="#76573c" d="M362 862l60 108-16-64z"/><path fill="#435139" d="M242 374l40-24-24-20z"/><path fill="#9c785a" d="M686 810l36 28-16-104z"/><path fill="#895e4e" d="M470 446l100-4-68-20z"/><path fill="#ced9ec" d="M78 138l-140 96 12-136z"/><path fill="#696c3b" d="M94 418l-44-56 236 8z"/><path fill="#e5ebf2" d="M350 26l68 116L162-42z"/><path fill="#703e37" d="M534 546h24l28 32z"/><path fill="#9d795a" d="M266 670v56l-36-28z"/><path fill="#55433c" d="M570 178l100-52-116 4z"/><path fill="#a0846b" d="M678 602l-12 52 48-76z"/><path fill="#62623a" d="M206 330l-52 152 84-60z"/><path fill="#615531" d="M98 830L50 994l-8-204z"/><path fill="#0a0c0c" d="M350 650l-4-28 64 4z"/><path fill="#977b5c" d="M898 582l-28 20 16 32z"/><path fill="#b5c8d1" d="M126 342l16-24 40 8z"/><path fill="#896251" d="M738 446l-120 8 60 20z"/><path fill="#fff" d="M382 258l-60-96 8 92z"/><path fill="#b5957e" d="M458 642l68-16v80z"/><path fill="#9d7864" d="M606 366l-60 88 88-60z"/><path fill="#876547" d="M1002 1054L658 942l-80 144z"/><path fill="#aa8a80" d="M426 362l12-80 8 56z"/><path fill="#1c0e03" d="M290 858l16-56v48z"/><path fill="#ad9188" d="M398 678l64 60-16-92z"/><path fill="#b1936b" d="M134 726l72 4-40-56z"/><path fill="#41240a" d="M838 462l-64-20 36 24z"/><path fill="#4b401f" d="M978 702l-56-72 80 8z"/><path fill="#645245" d="M514 90l88 20-172 52z"/><path fill="#b16269" d="M478 602l84 48 56-12z"/><path fill="#18161a" d="M690 862l-84-8 4 56z"/><path fill="#2f261b" d="M110 678l-72 24-80-20z"/><path fill="#6c4a2e" d="M914 1070l-24-144-44 8z"/><path fill="#b47b70" d="M574 554l56-16H530z"/><path fill="#625f2e" d="M290 606l-92 40-56-28z"/><path fill="#252c10" d="M950 366v20l-44-28z"/><path fill="#605f33" d="M946 762l140 32-48 24z"/><path fill="#7f5c3e" d="M314 826l60 48-72 4z"/><path fill="#253030" d="M706 618l92 56h-92z"/><path fill="#98785c" d="M854 802l4-176 36 112z"/><path fill="#998169" d="M722 862l-80-12 60-16z"/><path fill="#96a6ac" d="M834 54l152-40-168 152z"/><path fill="#746758" d="M694 58l8 80-44-88z"/><path fill="#371304" d="M334 602l-20 24 20-56z"/><path fill="#a1b0b8" d="M718 74l368-68-232-60z"/><path fill="#273139" d="M822 482l-44-28 56 92z"/><path fill="#45372d" d="M470 154l-44 76 12-64z"/><path fill="#635142" d="M602 94h84l-28 36z"/><path fill="#402114" d="M642 742l-28-28 16 40z"/><path fill="#846345" d="M442 1014l132-60-120-12z"/><path fill="#8a8550" d="M870 490l-76-76 228-20z"/><path fill="#502015" d="M346 554h-20l36-48z"/><path fill="#53331d" d="M886 922v-72l-24 68z"/><path fill="#305f51" d="M830 538l-52-40 32 72z"/><path fill="#3b4247" d="M270 810l24 32 8-28z"/><path fill="#948e77" d="M122 514l60-12-104-8z"/><path fill="#4d501d" d="M18 670l4-24-84 12z"/><path fill="#9aa494" d="M870 246h-8l-8-12z"/><path fill="#fff" d="M-62 50L82-62l160 96z"/><path fill="#3d291e" d="M514 186l32-24 8 48z"/><path fill="#18100a" d="M230 1026l16-72 12 132z"/><path fill="#736356" d="M630 178l56-44-16 36z"/><path fill="#53443b" d="M710 74l32 20-72-12z"/><path fill="#815a48" d="M446 402l72-4-64-20z"/><path fill="#ccd6e0" d="M398 2l176-64-64 84z"/><path fill="#483830" d="M698 146l124 68-128-28z"/><path fill="#75302a" d="M542 610l-28 4-20-12z"/><path fill="#4c3e24" d="M122 746l-28 88-20-36z"/><path fill="#39352e" d="M730 86l28 24-52-16z"/><path fill="#060400" d="M654 666l-12 36 48-52z"/><path fill="#cddee0" d="M854 202l44 28h-36z"/><path fill="#261412" d="M426 726l-16 4 4-16z"/><path fill="#dbe3e4" d="M50 346l-28-56 60-36z"/><path fill="#a1a19a" d="M514 70l-40 52h-28z"/><path fill="#997955" d="M266 966l224 120H218z"/><path fill="#566545" d="M890 370l-12-12h36z"/><path fill="#a07f60" d="M746 782l36-68 44-4z"/><path fill="#251512" d="M194 358l-28-4v-8z"/><path fill="#e6ecf4" d="M466 106l-4-72h48z"/><path fill="#ab8a67" d="M206 686l-76 20 116 24z"/><path fill="#6a5e3d" d="M42 1002l36-68-84 80z"/><path fill="#957250" d="M942 922l-32-80 124 52z"/><path fill="#987255" d="M322 814l44-12-68-24z"/><path fill="#e1e7e8" d="M374 286l-32 20-64-80z"/><path fill="#2c1c14" d="M558 862l44-8-36 40z"/><path fill="#4e2914" d="M134 926l16 4v-20z"/><path fill="#916e4c" d="M86 910l60 24-76 92z"/><path fill="#88674b" d="M418 982l-68-52 32 124z"/><path fill="#82988e" d="M1002 278l84-28-20-32z"/><path fill="#776b49" d="M954 682l36 92-76-80z"/><path fill="#43391a" d="M14 962l-4-68 40 32z"/><path fill="#aab9bc" d="M954 146l68-8-12 20z"/><path fill="#644b31" d="M286 750l-24 36 16-4z"/><path fill="#6a492c" d="M746 726l16 32-24-12z"/><path fill="#6c5c4c" d="M98 754l-88-4 36-24z"/><path fill="#505644" d="M310 366l-48-4 40-36z"/><path fill="#2b3212" d="M1010 338l52-76 24 124z"/><path fill="#b5c3cd" d="M306 282l-128 48h136z"/><path fill="#827060" d="M578 58l-84 48 176-20z"/><path fill="#050003" d="M410 634l-56 20 56-60z"/><path fill="#b59383" d="M734 518l20-76-104 104z"/><path fill="#6e6b4a" d="M918 538l-36-68 88 4z"/><path fill="#322619" d="M390 874l-8-20-40-16z"/><path fill="#5c6f42" d="M978 318l48-20-24 36z"/><path fill="#8e6a4c" d="M690 746l-12-20-52-4z"/><path fill="#625a30" d="M1062 646l-24 36-128-68z"/><path fill="#1f2920" d="M826 650l-48-12 60 44z"/><path fill="#373738" d="M474 874l12-32 44-24z"/><path fill="#5e6426" d="M-34 522l-28 84 100-12z"/><path fill="#301e0e" d="M634 950l80-72-60 24z"/><path fill="#7f844d" d="M250 394l52 20 4-28z"/><path fill="#332922" d="M286 762l-44-44 12 32z"/><path fill="#72827b" d="M834 190l-20-28v-28z"/><path fill="#cbd9dc" d="M746 78l24 16-4 32z"/><path fill="#91714e" d="M670 706l108-20-64-8z"/><path fill="#0a0509" d="M698 878l-40 24-44-48z"/><path fill="#c6d0d9" d="M58 130l56 60-176 64z"/><path fill="#77754b" d="M350 522l-88-88-152 4z"/><path fill="#a0835d" d="M98 850l60 4-48-48z"/><path fill="#987863" d="M430 622l56 68-32-72z"/><path fill="#3f3c2c" d="M842 322l-48-84 76 24z"/><path fill="#5f6432" d="M334 454l-36-16 12 52z"/><path fill="#343235" d="M474 746h100l-68 44z"/><path fill="#68564b" d="M746 198l-44 4 96 52z"/><path fill="#3f241a" d="M802 354l-36 48 12-88z"/></g></svg>