<svg xmlns="http://www.w3.org/2000/svg" version="1.1" width="1024" height="576">
<rect x="0" y="0" width="1024" height="576" fill="#998316" />
<g transform="scale(4.000000) translate(0.5 0.5)">
<polygon fill="#00003f" fill-opacity="0.501961" points="-14,146 140,112 -16,-15" />
<polygon fill="#ffde00" fill-opacity="0.501961" points="271,-2 71,1 247,159" />
<polygon fill="#0a2430" fill-opacity="0.501961" points="127,159 128,0 -16,139" />
<polygon fill="#ffca02" fill-opacity="0.501961" points="129,-16 271,140 129,159" />
<polygon fill="#ffd600" fill-opacity="0.501961" points="46,-16 15,-16 18,99" />
<polygon fill="#ffd700" fill-opacity="0.501961" points="103,42 120,98 118,-4" />
<polygon fill="#f3c600" fill-opacity="0.501961" points="38,158 18,142 19,84" />
<polygon fill="#001835" fill-opacity="0.501961" points="24,49 110,53 27,130" />
<polygon fill="#000e38" fill-opacity="0.501961" points="19,159 -16,45 13,-16" />
<polygon fill="#ffe000" fill-opacity="0.501961" points="120,103 114,127 112,82" />
<polygon fill="#000040" fill-opacity="0.501961" points="60,34 104,30 78,21" />
<polygon fill="#d6ae06" fill-opacity="0.501961" points="62,143 107,127 17,133" />
<polygon fill="#000040" fill-opacity="0.501961" points="90,159 130,133 11,142" />
<polygon fill="#fcbe05" fill-opacity="0.501961" points="130,-16 262,-16 271,138" />
<polygon fill="#c9a407" fill-opacity="0.501961" points="17,50 122,1 15,-12" />
<polygon fill="#091f34" fill-opacity="0.501961" points="25,131 113,125 109,32" />
<polygon fill="#e4b409" fill-opacity="0.501961" points="271,140 132,148 129,-16" />
<polygon fill="#000043" fill-opacity="0.501961" points="120,-15 120,35 129,2" />
<polygon fill="#e9bb01" fill-opacity="0.501961" points="97,32 57,46 101,43" />
<polygon fill="#000539" fill-opacity="0.501961" points="119,62 130,79 119,120" />
<polygon fill="#f5c900" fill-opacity="0.501961" points="18,99 24,75 26,123" />
<polygon fill="#f7c400" fill-opacity="0.501961" points="87,132 115,133 120,123" />
<polygon fill="#ffcc00" fill-opacity="0.501961" points="117,16 120,63 107,59" />
<polygon fill="#cfa80e" fill-opacity="0.501961" points="236,159 235,37 135,38" />
<polygon fill="#000937" fill-opacity="0.501961" points="129,69 126,17 119,43" />
<polygon fill="#00043b" fill-opacity="0.501961" points="128,159 128,110 118,126" />
<polygon fill="#ae940f" fill-opacity="0.501961" points="22,-8 29,36 84,51" />
<polygon fill="#0e2630" fill-opacity="0.501961" points="26,124 61,44 25,44" />
<polygon fill="#fcc901" fill-opacity="0.501961" points="132,159 129,13 151,87" />
<polygon fill="#001333" fill-opacity="0.501961" points="61,32 94,23 102,33" />
<polygon fill="#082533" fill-opacity="0.501961" points="-16,103 18,159 13,-16" />
<polygon fill="#d3a608" fill-opacity="0.501961" points="118,73 89,-12 120,-16" />
<polygon fill="#012131" fill-opacity="0.501961" points="41,140 134,159 126,132" />
<polygon fill="#e0b704" fill-opacity="0.501961" points="18,135 61,131 38,140" />
<polygon fill="#f9bf00" fill-opacity="0.501961" points="112,91 114,71 119,100" />
<polygon fill="#988113" fill-opacity="0.501961" points="103,63 118,71 85,65" />
<polygon fill="#e3b804" fill-opacity="0.501961" points="88,133 64,129 41,138" />
<polygon fill="#1a2a2e" fill-opacity="0.501961" points="47,67 112,64 93,45" />
<polygon fill="#ae930e" fill-opacity="0.501961" points="65,55 54,33 101,35" />
<polygon fill="#e8b905" fill-opacity="0.501961" points="125,48 170,-7 132,-13" />
<polygon fill="#c5a10f" fill-opacity="0.501961" points="142,12 251,10 193,27" />
<polygon fill="#002131" fill-opacity="0.501961" points="70,21 102,31 70,30" />
<polygon fill="#fac701" fill-opacity="0.501961" points="270,102 173,128 263,129" />
<polygon fill="#fec901" fill-opacity="0.501961" points="201,72 252,87 148,86" />
<polygon fill="#f6c600" fill-opacity="0.501961" points="17,58 24,76 22,38" />
<polygon fill="#f8c502" fill-opacity="0.501961" points="271,46 157,18 249,16" />
<polygon fill="#b5970e" fill-opacity="0.501961" points="117,-16 23,21 107,24" />
<polygon fill="#192932" fill-opacity="0.501961" points="26,56 27,134 110,72" />
<polygon fill="#d5af06" fill-opacity="0.501961" points="17,81 24,62 25,105" />
<polygon fill="#001831" fill-opacity="0.501961" points="120,-16 123,27 129,5" />
<polygon fill="#0d1f33" fill-opacity="0.501961" points="93,67 111,70 113,111" />
<polygon fill="#cca207" fill-opacity="0.501961" points="113,128 119,122 117,104" />
<polygon fill="#051f32" fill-opacity="0.501961" points="118,99 126,61 130,100" />
<polygon fill="#c1a00b" fill-opacity="0.501961" points="98,135 79,129 102,126" />
<polygon fill="#0b2232" fill-opacity="0.501961" points="77,63 24,55 37,39" />
<polygon fill="#f7c602" fill-opacity="0.501961" points="190,121 130,138 130,117" />
<polygon fill="#001b34" fill-opacity="0.501961" points="12,-16 14,6 -16,18" />
<polygon fill="#f5c204" fill-opacity="0.501961" points="255,159 233,76 256,-2" />
<polygon fill="#545521" fill-opacity="0.501961" points="68,58 90,66 47,63" />
<polygon fill="#f8c600" fill-opacity="0.501961" points="115,79 120,53 112,52" />
<polygon fill="#ad920f" fill-opacity="0.501961" points="23,37 36,-16 64,44" />
<polygon fill="#e8bd03" fill-opacity="0.501961" points="22,8 24,49 15,30" />
<polygon fill="#c9a609" fill-opacity="0.501961" points="19,128 23,114 27,142" />
<polygon fill="#0a1f32" fill-opacity="0.501961" points="89,64 102,45 48,61" />
<polygon fill="#cca809" fill-opacity="0.501961" points="84,43 101,44 100,33" />
<polygon fill="#d2a708" fill-opacity="0.501961" points="112,105 119,114 118,83" />
<polygon fill="#11242f" fill-opacity="0.501961" points="129,47 123,72 120,29" />
<polygon fill="#cfa90e" fill-opacity="0.501961" points="243,40 148,80 146,47" />
<polygon fill="#9b821d" fill-opacity="0.501961" points="234,17 221,10 247,14" />
<polygon fill="#cfa90d" fill-opacity="0.501961" points="229,87 209,119 139,88" />
<polygon fill="#2c372b" fill-opacity="0.501961" points="101,25 89,21 89,29" />
<polygon fill="#f6c303" fill-opacity="0.501961" points="252,12 233,-16 132,7" />
<polygon fill="#0e2630" fill-opacity="0.501961" points="127,110 120,129 119,94" />
<polygon fill="#0f2230" fill-opacity="0.501961" points="103,44 102,60 81,47" />
<polygon fill="#595222" fill-opacity="0.501961" points="103,54 110,53 106,36" />
<polygon fill="#072131" fill-opacity="0.501961" points="13,143 92,159 70,138" />
<polygon fill="#caa70a" fill-opacity="0.501961" points="60,20 29,-16 86,6" />
<polygon fill="#142632" fill-opacity="0.501961" points="112,85 26,132 113,124" />
<polygon fill="#927c1e" fill-opacity="0.501961" points="134,12 146,16 159,13" />
<polygon fill="#e0b704" fill-opacity="0.501961" points="116,53 123,52 108,48" />
<polygon fill="#182931" fill-opacity="0.501961" points="16,57 20,159 -16,131" />
<polygon fill="#f4c203" fill-opacity="0.501961" points="138,44 199,16 129,18" />
<polygon fill="#af930f" fill-opacity="0.501961" points="80,51 57,48 83,35" />
<polygon fill="#a68a19" fill-opacity="0.501961" points="197,19 217,12 186,12" />
<polygon fill="#062031" fill-opacity="0.501961" points="120,63 119,90 128,67" />
<polygon fill="#cfa909" fill-opacity="0.501961" points="26,122 20,101 19,118" />
<polygon fill="#937c1e" fill-opacity="0.501961" points="184,12 176,16 165,14" />
<polygon fill="#8a7818" fill-opacity="0.501961" points="95,23 111,43 112,28" />
<polygon fill="#d2a908" fill-opacity="0.501961" points="113,96 119,83 112,60" />
<polygon fill="#f1c005" fill-opacity="0.501961" points="129,95 131,148 152,159" />
<polygon fill="#c0a00c" fill-opacity="0.501961" points="119,131 118,121 116,132" />
<polygon fill="#cca70f" fill-opacity="0.501961" points="236,49 237,73 155,72" />
<polygon fill="#f3c200" fill-opacity="0.501961" points="119,46 118,5 111,19" />
<polygon fill="#b1930f" fill-opacity="0.501961" points="66,129 92,135 107,126" />
<polygon fill="#b99b0d" fill-opacity="0.501961" points="37,139 25,132 17,141" />
<polygon fill="#cea80e" fill-opacity="0.501961" points="235,89 150,115 237,115" />
<polygon fill="#f5c302" fill-opacity="0.501961" points="163,87 130,79 189,74" />
<polygon fill="#625e1f" fill-opacity="0.501961" points="41,60 48,63 30,63" />
<polygon fill="#eebf04" fill-opacity="0.501961" points="271,16 261,44 178,16" />
<polygon fill="#ab9010" fill-opacity="0.501961" points="24,11 57,23 28,46" />
</g>
</svg>