<svg xmlns="http://www.w3.org/2000/svg" version="1.1" width="1024" height="612">
<rect x="0" y="0" width="1024" height="612" fill="#c5a10d" />
<g transform="scale(4.000000) translate(0.5 0.5)">
<polygon fill="#00003f" fill-opacity="0.501961" points="36,47 156,51 39,110" />
<polygon fill="#00003d" fill-opacity="0.501961" points="132,168 89,127 271,130" />
<polygon fill="#ffe000" fill-opacity="0.501961" points="271,6 162,168 118,-16" />
<polygon fill="#000839" fill-opacity="0.501961" points="133,98 134,45 40,99" />
<polygon fill="#00003f" fill-opacity="0.501961" points="73,21 53,-16 25,21" />
<polygon fill="#ffeb00" fill-opacity="0.501961" points="45,33 0,-16 1,164" />
<polygon fill="#ffe700" fill-opacity="0.501961" points="83,137 -16,95 173,105" />
<polygon fill="#ffcb00" fill-opacity="0.501961" points="271,-8 266,154 47,-10" />
<polygon fill="#00003f" fill-opacity="0.501961" points="174,128 235,127 240,168" />
<polygon fill="#000d36" fill-opacity="0.501961" points="22,151 48,131 110,168" />
<polygon fill="#000939" fill-opacity="0.501961" points="167,128 102,131 97,168" />
<polygon fill="#ffcb00" fill-opacity="0.501961" points="103,76 78,64 96,159" />
<polygon fill="#001436" fill-opacity="0.501961" points="68,47 132,47 133,102" />
<polygon fill="#002030" fill-opacity="0.501961" points="36,42 37,99 92,98" />
<polygon fill="#ffd900" fill-opacity="0.501961" points="98,10 -16,47 180,47" />
<polygon fill="#ffcf00" fill-opacity="0.501961" points="175,168 134,84 178,84" />
<polygon fill="#001e32" fill-opacity="0.501961" points="177,129 238,144 177,162" />
<polygon fill="#ffd201" fill-opacity="0.501961" points="249,168 271,47 198,3" />
<polygon fill="#ffca00" fill-opacity="0.501961" points="-16,159 44,117 2,-14" />
<polygon fill="#001935" fill-opacity="0.501961" points="98,153 155,126 157,168" />
<polygon fill="#ffc404" fill-opacity="0.501961" points="255,126 88,127 268,12" />
<polygon fill="#042133" fill-opacity="0.501961" points="69,21 70,0 29,11" />
<polygon fill="#ffff00" fill-opacity="0.501961" points="21,-16 85,2 15,2" />
<polygon fill="#89701d" fill-opacity="0.501961" points="164,5 138,19 101,9" />
<polygon fill="#ffcc00" fill-opacity="0.501961" points="40,153 22,99 55,100" />
<polygon fill="#001b35" fill-opacity="0.501961" points="103,98 90,50 133,98" />
<polygon fill="#4d4e23" fill-opacity="0.501961" points="69,128 27,168 21,127" />
<polygon fill="#cba30d" fill-opacity="0.501961" points="149,50 174,112 223,53" />
<polygon fill="#ffca02" fill-opacity="0.501961" points="31,-13 -16,113 20,168" />
<polygon fill="#ffd500" fill-opacity="0.501961" points="39,150 31,135 49,121" />
<polygon fill="#000139" fill-opacity="0.501961" points="69,167 79,128 80,159" />
<polygon fill="#fff600" fill-opacity="0.501961" points="93,64 79,67 93,75" />
<polygon fill="#001935" fill-opacity="0.501961" points="31,4 54,3 33,21" />
<polygon fill="#ffca01" fill-opacity="0.501961" points="136,118 176,137 132,13" />
<polygon fill="#000a39" fill-opacity="0.501961" points="47,130 40,162 65,156" />
<polygon fill="#001734" fill-opacity="0.501961" points="100,126 101,154 123,129" />
<polygon fill="#ffcf00" fill-opacity="0.501961" points="76,101 84,168 110,99" />
<polygon fill="#ffd100" fill-opacity="0.501961" points="158,168 192,91 157,124" />
<polygon fill="#132a2e" fill-opacity="0.501961" points="42,52 88,59 36,96" />
<polygon fill="#001f32" fill-opacity="0.501961" points="237,129 238,157 199,128" />
<polygon fill="#ffcb00" fill-opacity="0.501961" points="100,51 97,0 39,42" />
<polygon fill="#4e5223" fill-opacity="0.501961" points="100,77 56,71 61,91" />
<polygon fill="#c3a00d" fill-opacity="0.501961" points="65,158 75,143 54,124" />
<polygon fill="#f9cb00" fill-opacity="0.501961" points="86,82 105,78 87,95" />
<polygon fill="#ffc802" fill-opacity="0.501961" points="155,99 63,130 -16,100" />
<polygon fill="#ffc802" fill-opacity="0.501961" points="7,-16 12,168 38,72" />
<polygon fill="#000839" fill-opacity="0.501961" points="22,143 68,160 27,160" />
<polygon fill="#ffce01" fill-opacity="0.501961" points="237,158 243,43 271,154" />
<polygon fill="#ffdd00" fill-opacity="0.501961" points="59,81 65,85 62,88" />
<polygon fill="#fbc603" fill-opacity="0.501961" points="271,127 132,127 134,74" />
<polygon fill="#000d38" fill-opacity="0.501961" points="189,128 177,164 177,129" />
<polygon fill="#ffd201" fill-opacity="0.501961" points="125,-6 70,21 70,-15" />
<polygon fill="#eac700" fill-opacity="0.501961" points="115,145 118,135 120,143" />
<polygon fill="#403d2a" fill-opacity="0.501961" points="59,128 66,146 66,127" />
<polygon fill="#ae940e" fill-opacity="0.501961" points="60,72 55,64 59,52" />
<polygon fill="#3b372e" fill-opacity="0.501961" points="157,10 155,18 152,5" />
<polygon fill="#ffc702" fill-opacity="0.501961" points="36,102 30,-16 -16,22" />
<polygon fill="#021534" fill-opacity="0.501961" points="22,129 37,128 24,133" />
<polygon fill="#d2ab0e" fill-opacity="0.501961" points="132,104 187,88 223,103" />
<polygon fill="#132931" fill-opacity="0.501961" points="130,99 130,48 77,49" />
<polygon fill="#fec503" fill-opacity="0.501961" points="17,21 -16,67 103,21" />
<polygon fill="#ffc802" fill-opacity="0.501961" points="55,96 95,114 101,162" />
<polygon fill="#a98617" fill-opacity="0.501961" points="198,162 184,149 223,149" />
<polygon fill="#ffcc00" fill-opacity="0.501961" points="104,2 94,-16 28,1" />
<polygon fill="#ab9015" fill-opacity="0.501961" points="215,81 163,80 192,72" />
<polygon fill="#0f2631" fill-opacity="0.501961" points="111,147 157,149 156,129" />
<polygon fill="#001932" fill-opacity="0.501961" points="78,79 70,86 72,51" />
<polygon fill="#fec403" fill-opacity="0.501961" points="46,46 113,11 223,48" />
<polygon fill="#d6b503" fill-opacity="0.501961" points="74,60 76,46 78,58" />
<polygon fill="#000f37" fill-opacity="0.501961" points="82,96 89,99 95,92" />
<polygon fill="#ffca02" fill-opacity="0.501961" points="135,121 158,58 134,13" />
<polygon fill="#ffcc01" fill-opacity="0.501961" points="177,151 153,168 169,98" />
<polygon fill="#d0aa07" fill-opacity="0.501961" points="42,141 23,144 30,129" />
<polygon fill="#635726" fill-opacity="0.501961" points="101,4 111,12 101,13" />
<polygon fill="#ad8d16" fill-opacity="0.501961" points="182,47 215,56 152,56" />
<polygon fill="#584c28" fill-opacity="0.501961" points="129,15 124,9 148,9" />
<polygon fill="#fec404" fill-opacity="0.501961" points="178,54 147,-16 271,4" />
<polygon fill="#ffc902" fill-opacity="0.501961" points="49,127 230,125 131,99" />
<polygon fill="#85721f" fill-opacity="0.501961" points="216,136 211,141 203,137" />
<polygon fill="#efbe03" fill-opacity="0.501961" points="66,150 76,113 76,143" />
<polygon fill="#132331" fill-opacity="0.501961" points="63,72 38,100 37,48" />
<polygon fill="#ffd500" fill-opacity="0.501961" points="197,78 214,70 169,71" />
<polygon fill="#d6ab09" fill-opacity="0.501961" points="65,73 69,79 72,76" />
<polygon fill="#ffcd00" fill-opacity="0.501961" points="169,-16 121,8 143,9" />
<polygon fill="#2d372d" fill-opacity="0.501961" points="68,3 69,21 29,2" />
<polygon fill="#fbc703" fill-opacity="0.501961" points="-16,-6 -16,94 39,76" />
<polygon fill="#1e2b2f" fill-opacity="0.501961" points="93,77 81,74 85,83" />
<polygon fill="#fffb00" fill-opacity="0.501961" points="184,148 195,167 194,157" />
<polygon fill="#f9bf00" fill-opacity="0.501961" points="91,77 94,67 78,69" />
<polygon fill="#0e2233" fill-opacity="0.501961" points="132,97 110,54 101,95" />
<polygon fill="#877421" fill-opacity="0.501961" points="208,71 208,64 194,67" />
<polygon fill="#ffcc01" fill-opacity="0.501961" points="98,101 98,148 73,168" />
<polygon fill="#efbe04" fill-opacity="0.501961" points="154,13 127,37 131,12" />
<polygon fill="#c3a30b" fill-opacity="0.501961" points="92,92 86,95 78,80" />
<polygon fill="#ffd200" fill-opacity="0.501961" points="223,55 219,67 176,58" />
<polygon fill="#ffc803" fill-opacity="0.501961" points="-16,127 26,96 135,126" />
<polygon fill="#101d33" fill-opacity="0.501961" points="70,20 56,21 69,4" />
<polygon fill="#605927" fill-opacity="0.501961" points="32,7 46,13 67,5" />
<polygon fill="#121b32" fill-opacity="0.501961" points="24,129 22,143 26,145" />
<polygon fill="#102731" fill-opacity="0.501961" points="149,147 105,128 156,128" />
</g>
</svg>