<svg xmlns="http://www.w3.org/2000/svg" version="1.1" width="1024" height="604">
<rect x="0" y="0" width="1024" height="604" fill="#766a1c" />
<g transform="scale(4.000000) translate(0.5 0.5)">
<polygon fill="#ffde00" fill-opacity="0.501961" points="63,-16 185,80 43,80" />
<polygon fill="#ffed00" fill-opacity="0.501961" points="32,132 145,133 11,94" />
<polygon fill="#fff700" fill-opacity="0.501961" points="166,100 153,132 263,133" />
<polygon fill="#001237" fill-opacity="0.501961" points="251,105 159,101 166,-16" />
<polygon fill="#0f1f32" fill-opacity="0.501961" points="37,105 -6,-16 127,100" />
<polygon fill="#000045" fill-opacity="0.501961" points="98,166 213,135 -16,134" />
<polygon fill="#daab08" fill-opacity="0.501961" points="165,79 3,80 150,17" />
<polygon fill="#000041" fill-opacity="0.501961" points="100,5 139,3 132,47" />
<polygon fill="#ffce00" fill-opacity="0.501961" points="133,43 73,-16 39,56" />
<polygon fill="#ffee00" fill-opacity="0.501961" points="170,81 207,69 247,79" />
<polygon fill="#000839" fill-opacity="0.501961" points="118,134 232,166 271,135" />
<polygon fill="#000043" fill-opacity="0.501961" points="97,124 121,129 121,80" />
<polygon fill="#ffe000" fill-opacity="0.501961" points="101,133 20,105 97,104" />
<polygon fill="#000041" fill-opacity="0.501961" points="223,129 249,78 251,127" />
<polygon fill="#ffff00" fill-opacity="0.501961" points="271,59 251,132 251,-14" />
<polygon fill="#ffd900" fill-opacity="0.501961" points="226,134 228,103 157,105" />
<polygon fill="#000f38" fill-opacity="0.501961" points="133,80 133,132 189,81" />
<polygon fill="#ffff00" fill-opacity="0.501961" points="3,-16 3,101 -16,48" />
<polygon fill="#001437" fill-opacity="0.501961" points="160,4 227,3 178,69" />
<polygon fill="#051c34" fill-opacity="0.501961" points="8,9 2,72 70,71" />
<polygon fill="#fff400" fill-opacity="0.501961" points="158,0 241,-16 271,9" />
<polygon fill="#fff300" fill-opacity="0.501961" points="132,62 121,100 132,138" />
<polygon fill="#0b1d34" fill-opacity="0.501961" points="93,47 61,73 97,74" />
<polygon fill="#ffff00" fill-opacity="0.501961" points="55,-16 -10,2 104,2" />
<polygon fill="#001634" fill-opacity="0.501961" points="-16,134 137,136 20,166" />
<polygon fill="#ffe700" fill-opacity="0.501961" points="207,2 79,3 145,-16" />
<polygon fill="#ffef00" fill-opacity="0.501961" points="4,44 -16,126 6,132" />
<polygon fill="#031734" fill-opacity="0.501961" points="252,73 163,70 250,49" />
<polygon fill="#000041" fill-opacity="0.501961" points="5,126 21,119 8,80" />
<polygon fill="#ffc800" fill-opacity="0.501961" points="269,52 194,34 260,29" />
<polygon fill="#001138" fill-opacity="0.501961" points="28,82 122,81 121,110" />
<polygon fill="#031a35" fill-opacity="0.501961" points="6,71 52,5 7,3" />
<polygon fill="#ffc201" fill-opacity="0.501961" points="246,134 157,132 159,103" />
<polygon fill="#feba04" fill-opacity="0.501961" points="111,132 55,103 -7,133" />
<polygon fill="#ffe100" fill-opacity="0.501961" points="22,90 47,74 4,74" />
<polygon fill="#ffe300" fill-opacity="0.501961" points="208,80 151,80 179,71" />
<polygon fill="#000339" fill-opacity="0.501961" points="135,39 131,9 123,53" />
<polygon fill="#e6b806" fill-opacity="0.501961" points="117,80 150,-5 148,89" />
<polygon fill="#cfac07" fill-opacity="0.501961" points="187,12 202,31 201,47" />
<polygon fill="#000e39" fill-opacity="0.501961" points="217,2 202,42 188,9" />
<polygon fill="#c09d0a" fill-opacity="0.501961" points="54,-16 44,68 68,52" />
<polygon fill="#000d3a" fill-opacity="0.501961" points="133,82 157,126 136,127" />
<polygon fill="#001434" fill-opacity="0.501961" points="123,125 100,81 100,129" />
<polygon fill="#001237" fill-opacity="0.501961" points="92,103 31,81 23,103" />
<polygon fill="#ffde00" fill-opacity="0.501961" points="231,8 234,-16 271,20" />
<polygon fill="#00003f" fill-opacity="0.501961" points="234,12 250,17 245,32" />
<polygon fill="#011d33" fill-opacity="0.501961" points="245,129 213,81 252,82" />
<polygon fill="#26302e" fill-opacity="0.501961" points="156,74 244,36 218,73" />
<polygon fill="#ffd500" fill-opacity="0.501961" points="263,68 261,80 218,79" />
<polygon fill="#001537" fill-opacity="0.501961" points="163,103 177,81 241,103" />
<polygon fill="#000044" fill-opacity="0.501961" points="30,128 28,123 12,128" />
<polygon fill="#ffca00" fill-opacity="0.501961" points="33,-10 84,-16 135,69" />
<polygon fill="#ffd200" fill-opacity="0.501961" points="100,105 61,104 99,125" />
<polygon fill="#ffcc00" fill-opacity="0.501961" points="-16,62 5,79 4,-9" />
<polygon fill="#1b2b2d" fill-opacity="0.501961" points="150,3 165,4 158,55" />
<polygon fill="#b69a0d" fill-opacity="0.501961" points="157,39 161,11 172,49" />
<polygon fill="#fabe05" fill-opacity="0.501961" points="156,105 229,104 158,131" />
<polygon fill="#ffd800" fill-opacity="0.501961" points="124,127 126,90 136,132" />
<polygon fill="#ffd000" fill-opacity="0.501961" points="38,80 68,69 106,80" />
<polygon fill="#082631" fill-opacity="0.501961" points="132,166 249,147 122,134" />
<polygon fill="#ffd500" fill-opacity="0.501961" points="254,58 251,133 271,129" />
<polygon fill="#041934" fill-opacity="0.501961" points="214,31 193,2 220,4" />
<polygon fill="#e4b205" fill-opacity="0.501961" points="40,-13 29,-16 30,25" />
<polygon fill="#001a34" fill-opacity="0.501961" points="138,5 96,3 120,28" />
<polygon fill="#ffe800" fill-opacity="0.501961" points="205,31 211,42 232,31" />
<polygon fill="#3f4229" fill-opacity="0.501961" points="95,56 94,73 50,74" />
<polygon fill="#ffcc00" fill-opacity="0.501961" points="184,-11 191,18 175,-11" />
<polygon fill="#fac102" fill-opacity="0.501961" points="29,100 12,95 13,76" />
<polygon fill="#ffcc00" fill-opacity="0.501961" points="125,126 108,134 149,132" />
<polygon fill="#0c2232" fill-opacity="0.501961" points="122,82 101,126 122,129" />
<polygon fill="#0b1e32" fill-opacity="0.501961" points="163,50 160,71 220,72" />
<polygon fill="#9f8911" fill-opacity="0.501961" points="226,49 229,4 253,52" />
<polygon fill="#ffd200" fill-opacity="0.501961" points="83,2 206,1 145,-16" />
<polygon fill="#ffc901" fill-opacity="0.501961" points="165,128 228,126 226,106" />
<polygon fill="#011a33" fill-opacity="0.501961" points="46,29 39,3 17,66" />
<polygon fill="#b5980d" fill-opacity="0.501961" points="76,69 80,39 40,40" />
<polygon fill="#001933" fill-opacity="0.501961" points="5,87 6,127 18,103" />
<polygon fill="#f7c600" fill-opacity="0.501961" points="138,25 134,54 163,57" />
<polygon fill="#071e32" fill-opacity="0.501961" points="228,91 253,128 228,127" />
<polygon fill="#001933" fill-opacity="0.501961" points="134,51 122,50 130,35" />
<polygon fill="#ffc500" fill-opacity="0.501961" points="40,-16 -7,3 94,2" />
<polygon fill="#fdbb01" fill-opacity="0.501961" points="197,70 221,79 163,80" />
<polygon fill="#957b1e" fill-opacity="0.501961" points="190,116 167,108 213,110" />
<polygon fill="#c6a309" fill-opacity="0.501961" points="87,45 88,70 76,38" />
<polygon fill="#b08e0f" fill-opacity="0.501961" points="28,25 22,43 29,36" />
<polygon fill="#b1990d" fill-opacity="0.501961" points="153,96 140,83 168,98" />
<polygon fill="#071e31" fill-opacity="0.501961" points="224,43 205,42 218,71" />
<polygon fill="#112731" fill-opacity="0.501961" points="143,81 164,94 211,80" />
<polygon fill="#052132" fill-opacity="0.501961" points="143,143 63,166 -16,144" />
<polygon fill="#b59210" fill-opacity="0.501961" points="192,88 206,87 191,82" />
<polygon fill="#d7b10c" fill-opacity="0.501961" points="224,139 207,144 223,144" />
<polygon fill="#393c2c" fill-opacity="0.501961" points="248,52 248,73 182,74" />
<polygon fill="#091d34" fill-opacity="0.501961" points="34,3 18,3 18,50" />
<polygon fill="#ffc300" fill-opacity="0.501961" points="226,-15 218,-10 220,15" />
<polygon fill="#072133" fill-opacity="0.501961" points="162,98 136,88 133,129" />
<polygon fill="#ffc700" fill-opacity="0.501961" points="253,89 252,-13 271,47" />
<polygon fill="#a68516" fill-opacity="0.501961" points="237,92 220,93 211,86" />
<polygon fill="#001235" fill-opacity="0.501961" points="251,17 250,32 238,16" />
<polygon fill="#142531" fill-opacity="0.501961" points="230,3 193,18 186,4" />
<polygon fill="#ffd300" fill-opacity="0.501961" points="232,40 222,31 203,41" />
</g>
</svg>